Coordinates
version=1
nRows=29
nColumns=24
inDegrees=yes

Units are S.I. units (second, meters, Newtons, ...)
Angles are in degrees.

endheader
time	pelvis_tilt	pelvis_list	pelvis_rotation	pelvis_tx	pelvis_ty	pelvis_tz	hip_flexion_r	hip_adduction_r	hip_rotation_r	knee_angle_r	ankle_angle_r	subtalar_angle_r	mtp_angle_r	hip_flexion_l	hip_adduction_l	hip_rotation_l	knee_angle_l	ankle_angle_l	subtalar_angle_l	mtp_angle_l	lumbar_extension	lumbar_bending	lumbar_rotation
      1.84500000	      2.29236125	      1.58227084	     -0.28902955	      1.08884318	      0.88779139	      0.00177561	     -3.53511822	     -2.01059864	     -2.43090584	    -57.06071722	     -6.28480137	     -5.60313507	     54.16753174	     19.17775467	      5.59305020	     -0.14264807	    -24.37435639	     12.46198420	     -5.52717534	     24.90778277	    -10.47929343	     -3.68638901	     -4.49734693
      1.85000000	      2.35423685	      1.92918381	     -0.44840612	      1.09592319	      0.88844849	      0.00194328	     -2.48745593	     -2.33839374	     -2.16878520	    -58.75738413	     -6.64001065	     -6.50841505	     53.71109088	     18.63792105	      5.87486993	     -0.47437335	    -24.45867488	     13.08436243	     -5.17269408	     24.83599217	    -10.56545307	     -4.15195594	     -4.50776954
      1.85500000	      2.37771015	      2.22869345	     -0.54429584	      1.10296505	      0.88910930	      0.00204439	     -1.40548781	     -2.60799215	     -1.97881790	    -60.39280499	     -6.49787694	     -6.93745266	     50.96652331	     18.11935764	      6.12587816	     -0.73808584	    -24.50715898	     13.82218333	     -4.64406170	     23.65500413	    -10.60776418	     -4.55264772	     -4.56230999
      1.86000000	      2.44597857	      2.47914984	     -0.69971916	      1.10996901	      0.88995102	      0.00223675	     -0.36860488	     -2.81321436	     -1.73288055	    -61.88853878	     -6.39615631	     -7.57290982	     50.56989633	     17.49499760	      6.31167006	     -1.04632718	    -24.42680544	     14.39273497	     -4.24971995	     23.58202410	    -10.69891644	     -4.90169364	     -4.51485194
      1.86500000	      2.50951184	      2.68514963	     -0.80276916	      1.11701673	      0.89088364	      0.00242789	      0.64223694	     -2.95625232	     -1.54302271	    -63.27660192	     -5.86717454	     -7.81213234	     48.34926214	     16.82173054	      6.46108021	     -1.29645417	    -24.26196999	     15.06793846	     -3.66393111	     22.67543723	    -10.77785033	     -5.19889272	     -4.57900643
      1.87000000	      2.57309593	      2.87123035	     -0.99135225	      1.12397892	      0.89187328	      0.00266562	      1.68528366	     -3.08540959	     -1.29358813	    -64.57715461	     -5.35928644	     -8.20385225	     48.09411692	     16.12036051	      6.59213106	     -1.57259013	    -24.01576162	     15.52187822	     -3.45042480	     22.60460459	    -10.85352400	     -5.47378119	     -4.51223649
      1.87500000	      2.66305175	      2.97316456	     -1.10829328	      1.13096308	      0.89298556	      0.00291094	      2.65336013	     -3.09893100	     -1.11063920	    -65.74295216	     -4.46397390	     -8.27187055	     46.14532206	     15.35598841	      6.63778142	     -1.80654604	    -23.72250635	     16.11309429	     -2.89859889	     21.82246510	    -10.96077909	     -5.65019688	     -4.53852575
      1.88000000	      2.70447738	      3.09411110	     -1.25462912	      1.13794409	      0.89409661	      0.00310179	      3.68744386	     -3.15450769	     -0.93811374	    -66.81454515	     -3.65445320	     -8.48107852	     46.06155122	     14.59043732	      6.73069843	     -1.97117555	    -23.30198847	     16.44056004	     -2.71471219	     21.79571130	    -11.00286340	     -5.83870814	     -4.50361130
      1.88500000	      2.81091388	      3.12182560	     -1.42889743	      1.14487801	      0.89533325	      0.00340724	      4.63801172	     -3.08640899	     -0.73867661	    -67.77703139	     -2.55011149	     -8.39312913	     44.35804263	     13.75400807	      6.70496347	     -2.20071313	    -22.89598345	     16.95758588	     -2.25777573	     21.09008593	    -11.11853739	     -5.93151357	     -4.40000670
      1.89000000	      2.84251405	      3.17204857	     -1.58597869	      1.15181830	      0.89650447	      0.00363868	      5.66811477	     -3.05847055	     -0.58400185	    -68.64103017	     -1.54007770	     -8.43741185	     44.33248917	     12.95787017	      6.73397466	     -2.34117329	    -22.39110753	     17.23499173	     -2.11847658	     21.07056722	    -11.14691213	     -6.03722084	     -4.36905180
      1.89500000	      2.90355411	      3.17404178	     -1.76378630	      1.15877452	      0.89775109	      0.00391526	      6.65027833	     -2.97258209	     -0.42474952	    -69.38966930	     -0.44617135	     -8.38735913	     44.18531025	     12.11389111	      6.70933027	     -2.50048411	    -21.85754113	     17.52679008	     -1.90419484	     21.01935984	    -11.20485819	     -6.08986985	     -4.28463650
      1.90000000	      2.98690518	      3.15635242	     -1.93862277	      1.16572180	      0.89904341	      0.00418338	      7.59382294	     -2.86931400	     -0.29164791	    -70.03301216	      0.69367807	     -8.31364297	     43.93264602	     11.21865455	      6.67627407	     -2.62902161	    -21.27729779	     17.78997437	     -1.72144886	     20.93218999	    -11.28018825	     -6.11568603	     -4.20245415
      1.90500000	      3.12626537	      3.07845361	     -2.09442168	      1.17269794	      0.90045828	      0.00446770	      8.43920980	     -2.69521842	     -0.20440696	    -70.55596061	      2.00767347	     -8.12180298	     41.77951581	     10.23802901	      6.58734239	     -2.71776556	    -20.65619324	     18.10432531	     -1.45678937	     20.28633985	    -11.42060358	     -6.07317535	     -4.10954022
      1.91000000	      3.14811727	      3.03088246	     -2.24487192	      1.17966578	      0.90167204	      0.00468603	      9.41675095	     -2.57347796	     -0.14122603	    -70.99965515	      3.14107050	     -8.05932077	     41.79587427	      9.38389052	      6.54807118	     -2.75754754	    -20.01920984	     18.26669005	     -1.43149337	     20.25220030	    -11.42832557	     -6.05208453	     -4.05646058
      1.91500000	      3.22624328	      2.95585195	     -2.40950508	      1.18668923	      0.90297232	      0.00493676	     10.30471836	     -2.42396714	     -0.08851229	    -71.32560582	      4.26859251	     -8.00518228	     41.70208025	      8.44174304	      6.48214580	     -2.80977796	    -19.33859974	     18.41152156	     -1.37301574	     20.20086601	    -11.48772790	     -6.00112029	     -3.96160234
      1.92000000	      3.38385485	      2.85007660	     -2.55060200	      1.19372768	      0.90439933	      0.00521373	     11.06715698	     -2.24247112	     -0.08520945	    -71.53378500	      5.47102027	     -7.93992367	     40.28523706	      7.39135013	      6.38481223	     -2.85946527	    -18.61811111	     18.55281835	     -1.18181136	     19.88111570	    -11.64171578	     -5.91808151	     -3.89421239
      1.92500000	      3.42577162	      2.74120426	     -2.68425058	      1.20071647	      0.90560676	      0.00541369	     11.95852011	     -2.06903040	     -0.09334920	    -71.67250431	      6.52988085	     -7.90130713	     40.27324261	      6.47686495	      6.30189439	     -2.82289465	    -17.90013569	     18.63431785	     -1.22973234	     19.85625696	    -11.67093601	     -5.81540242	     -3.81330918
      1.93000000	      3.54076394	      2.63225535	     -2.82147040	      1.20778219	      0.90689060	      0.00565028	     12.73427789	     -1.90398866	     -0.12401216	    -71.70284544	      7.56510462	     -7.91872583	     40.15128916	      5.46014236	      6.22084249	     -2.81497419	    -17.15021192	     18.69541408	     -1.24515208	     19.82797476	    -11.77046252	     -5.71769998	     -3.76297465
      1.93500000	      3.68716731	      2.49914354	     -2.95334690	      1.21486277	      0.90820725	      0.00589946	     13.44536920	     -1.72076052	     -0.18357618	    -71.62596121	      8.54629384	     -7.96149336	     39.88926871	      4.39389779	      6.11601269	     -2.81634996	    -16.37056501	     18.71722999	     -1.24145135	     19.80311389	    -11.90960853	     -5.59392741	     -3.69069933
      1.94000000	      3.85596286	      2.32037432	     -3.04920289	      1.22197256	      0.90952510	      0.00613747	     14.08555406	     -1.49729706	     -0.30871720	    -71.44015313	      9.54434695	     -8.04662213	     38.57378758	      3.30330530	      5.95598149	     -2.83032489	    -15.59639749	     18.76998511	     -1.05860080	     19.84856428	    -12.07226269	     -5.41445033	     -3.62651321
      1.94500000	      3.91547488	      2.20394990	     -3.14764010	      1.22900758	      0.91059156	      0.00632309	     14.86408185	     -1.34643997	     -0.40431599	    -71.22446453	     10.42829622	     -8.08499644	     38.48875823	      2.34399336	      5.88049940	     -2.75672910	    -14.82182327	     18.71221294	     -1.21646627	     19.82153934	    -12.11928701	     -5.29516608	     -3.60029699
      1.95000000	      4.08757533	      2.04811565	     -3.21788670	      1.23610500	      0.91179601	      0.00650357	     15.46254072	     -1.17308725	     -0.56257961	    -70.88116764	     11.23320022	     -8.21126616	     38.25982313	      1.24238937	      5.76203144	     -2.69395690	    -14.02023115	     18.66842796	     -1.23282803	     19.81668459	    -12.29179783	     -5.13431386	     -3.59115203
      1.95500000	      4.24276515	      1.88716374	     -3.30144751	      1.24321181	      0.91291737	      0.00671172	     16.06074414	     -0.99445548	     -0.71839333	    -70.46025831	     11.98640715	     -8.33830281	     37.84065966	      0.15249119	      5.63281484	     -2.68836610	    -13.20891434	     18.59174745	     -1.18029265	     19.84944815	    -12.44034510	     -4.96978494	     -3.52946117
      1.96000000	      4.38819684	      1.72501789	     -3.36917440	      1.25027864	      0.91395041	      0.00691478	     16.64515300	     -0.81467333	     -0.88303673	    -69.96479912	     12.69657189	     -8.48670370	     37.42210334	     -0.91070095	      5.50327614	     -2.66381262	    -12.41900217	     18.52660250	     -1.16727197	     19.90755666	    -12.58968732	     -4.80222295	     -3.52024347
      1.96500000	      4.50752619	      1.56981666	     -3.43593050	      1.25734724	      0.91485400	      0.00717445	     17.24277866	     -0.63137366	     -1.03765471	    -69.41650405	     13.45281033	     -8.57060026	     36.13821222	     -1.91960777	      5.36529124	     -2.75438892	    -11.68251904	     18.50760762	     -0.95250117	     20.21584252	    -12.70904271	     -4.64638035	     -3.51954587
      1.97000000	      4.61085974	      1.42081208	     -3.43568744	      1.26438362	      0.91568751	      0.00727195	     17.82648917	     -0.49163022	     -1.26528695	    -68.77795975	     14.00974428	     -8.73542226	     36.02468750	     -2.92143639	      5.25438766	     -2.62722243	    -10.91053089	     18.36697645	     -1.10746750	     20.20036604	    -12.81871942	     -4.47777424	     -3.59635866
      1.97500000	      4.77774786	      1.26538315	     -3.44323461	      1.27141140	      0.91653289	      0.00741908	     18.30680656	     -0.34606345	     -1.48871133	    -68.05082099	     14.53024840	     -8.88984629	     35.81346774	     -3.98869760	      5.12747001	     -2.60502327	    -10.14677597	     18.27063383	     -1.04128547	     20.25437665	    -13.00362885	     -4.31164766	     -3.63648579
      1.98000000	      4.92555182	      1.10826504	     -3.45392297	      1.27841797	      0.91727988	      0.00759497	     18.78876293	     -0.19083925	     -1.69924356	    -67.25567021	     14.99135624	     -9.05450253	     35.54884000	     -5.01460831	      4.99275838	     -2.63838836	     -9.42275765	     18.18055904	     -0.93250170	     20.34703205	    -13.16907236	     -4.14476296	     -3.69032232
      1.98500000	      5.05730279	      0.96526545	     -3.45636321	      1.28543806	      0.91793205	      0.00776461	     19.26035558	     -0.05644800	     -1.91745021	    -66.39374993	     15.40492153	     -9.18775356	     35.24023946	     -6.02667315	      4.87132200	     -2.67312981	     -8.68779082	     18.07128835	     -0.80115048	     20.47717841	    -13.31797809	     -3.99286405	     -3.73941714
